<svg width="68" height="16" viewBox="0 0 68 16" fill="none" xmlns="http://www.w3.org/2000/svg">
<mask id="path-1-outside-1_5979_803" maskUnits="userSpaceOnUse" x="-1" y="-1" width="70" height="18" fill="black">
<rect fill="white" x="-1" y="-1" width="70" height="18"/>
<path d="M0.409091 0.363636H2.09091L6.04545 10.0227H6.18182L10.1364 0.363636H11.8182V12H10.5V3.15909H10.3864L6.75 12H5.47727L1.84091 3.15909H1.72727V12H0.409091V0.363636ZM15.3253 15.2727C15.098 15.2727 14.8954 15.2538 14.7173 15.2159C14.5393 15.1818 14.4162 15.1477 14.348 15.1136L14.6889 13.9318C15.0147 14.0152 15.3026 14.0455 15.5526 14.0227C15.8026 14 16.0241 13.8883 16.2173 13.6875C16.4143 13.4905 16.5942 13.1705 16.7571 12.7273L17.0071 12.0455L13.7798 3.27273H15.2344L17.6435 10.2273H17.7344L20.1435 3.27273H21.598L17.8935 13.2727C17.7268 13.7235 17.5204 14.0966 17.2741 14.392C17.0279 14.6913 16.742 14.9129 16.4162 15.0568C16.0942 15.2008 15.7306 15.2727 15.3253 15.2727ZM28.0497 12V0.363636H29.3906V4.65909H29.5043C29.6027 4.50758 29.7391 4.31439 29.9134 4.07955C30.0914 3.84091 30.3452 3.62879 30.6747 3.44318C31.008 3.25379 31.4588 3.15909 32.027 3.15909C32.7618 3.15909 33.4096 3.3428 33.9702 3.71023C34.5308 4.07765 34.9683 4.59848 35.2827 5.27273C35.5971 5.94697 35.7543 6.74242 35.7543 7.65909C35.7543 8.58333 35.5971 9.38447 35.2827 10.0625C34.9683 10.7367 34.5327 11.2595 33.9759 11.6307C33.419 11.9981 32.777 12.1818 32.0497 12.1818C31.4891 12.1818 31.0402 12.089 30.7031 11.9034C30.366 11.714 30.1065 11.5 29.9247 11.2614C29.7429 11.0189 29.6027 10.8182 29.5043 10.6591H29.3452V12H28.0497ZM29.3679 7.63636C29.3679 8.29545 29.4645 8.87689 29.6577 9.38068C29.8509 9.88068 30.133 10.2727 30.5043 10.5568C30.8755 10.8371 31.33 10.9773 31.8679 10.9773C32.4285 10.9773 32.8963 10.8295 33.2713 10.5341C33.6501 10.2348 33.9342 9.83333 34.1236 9.32955C34.3168 8.82197 34.4134 8.25758 34.4134 7.63636C34.4134 7.02273 34.3187 6.4697 34.1293 5.97727C33.9437 5.48106 33.6615 5.08902 33.2827 4.80114C32.9077 4.50947 32.4361 4.36364 31.8679 4.36364C31.3224 4.36364 30.8641 4.50189 30.4929 4.77841C30.1217 5.05114 29.8414 5.43371 29.652 5.92614C29.4626 6.41477 29.3679 6.98485 29.3679 7.63636ZM39.1463 0.363636V12H37.8054V0.363636H39.1463ZM45.1477 12.1818C44.3598 12.1818 43.6686 11.9943 43.0739 11.6193C42.483 11.2443 42.0208 10.7197 41.6875 10.0455C41.358 9.37121 41.1932 8.58333 41.1932 7.68182C41.1932 6.77273 41.358 5.97917 41.6875 5.30114C42.0208 4.62311 42.483 4.09659 43.0739 3.72159C43.6686 3.34659 44.3598 3.15909 45.1477 3.15909C45.9356 3.15909 46.625 3.34659 47.2159 3.72159C47.8106 4.09659 48.2727 4.62311 48.6023 5.30114C48.9356 5.97917 49.1023 6.77273 49.1023 7.68182C49.1023 8.58333 48.9356 9.37121 48.6023 10.0455C48.2727 10.7197 47.8106 11.2443 47.2159 11.6193C46.625 11.9943 45.9356 12.1818 45.1477 12.1818ZM45.1477 10.9773C45.7462 10.9773 46.2386 10.8239 46.625 10.517C47.0114 10.2102 47.2973 9.80682 47.483 9.30682C47.6686 8.80682 47.7614 8.26515 47.7614 7.68182C47.7614 7.09848 47.6686 6.55492 47.483 6.05114C47.2973 5.54735 47.0114 5.14015 46.625 4.82955C46.2386 4.51894 45.7462 4.36364 45.1477 4.36364C44.5492 4.36364 44.0568 4.51894 43.6705 4.82955C43.2841 5.14015 42.9981 5.54735 42.8125 6.05114C42.6269 6.55492 42.5341 7.09848 42.5341 7.68182C42.5341 8.26515 42.6269 8.80682 42.8125 9.30682C42.9981 9.80682 43.2841 10.2102 43.6705 10.517C44.0568 10.8239 44.5492 10.9773 45.1477 10.9773ZM54.6719 15.4545C54.0241 15.4545 53.4673 15.3712 53.0014 15.2045C52.5355 15.0417 52.1473 14.8258 51.8366 14.5568C51.5298 14.2917 51.2855 14.0076 51.1037 13.7045L52.1719 12.9545C52.2931 13.1136 52.4465 13.2955 52.6321 13.5C52.8177 13.7083 53.0715 13.8883 53.3935 14.0398C53.7192 14.1951 54.1454 14.2727 54.6719 14.2727C55.3764 14.2727 55.9579 14.1023 56.4162 13.7614C56.8745 13.4205 57.1037 12.8864 57.1037 12.1591V10.3864H56.9901C56.8916 10.5455 56.7514 10.7424 56.5696 10.9773C56.3916 11.2083 56.134 11.4148 55.7969 11.5966C55.4635 11.7746 55.0128 11.8636 54.4446 11.8636C53.7401 11.8636 53.1075 11.697 52.5469 11.3636C51.9901 11.0303 51.5488 10.5455 51.223 9.90909C50.901 9.27273 50.7401 8.5 50.7401 7.59091C50.7401 6.69697 50.8973 5.91856 51.2116 5.25568C51.526 4.58901 51.9635 4.07386 52.5241 3.71023C53.0848 3.3428 53.7325 3.15909 54.4673 3.15909C55.0355 3.15909 55.4863 3.25379 55.8196 3.44318C56.1567 3.62879 56.4143 3.84091 56.5923 4.07955C56.7741 4.31439 56.9143 4.50758 57.0128 4.65909H57.1491V3.27273H58.4446V12.25C58.4446 13 58.2741 13.6098 57.9332 14.0795C57.5961 14.553 57.1416 14.8996 56.5696 15.1193C56.0014 15.3428 55.3688 15.4545 54.6719 15.4545ZM54.6264 10.6591C55.1643 10.6591 55.6188 10.536 55.9901 10.2898C56.3613 10.0436 56.6435 9.68939 56.8366 9.22727C57.0298 8.76515 57.1264 8.21212 57.1264 7.56818C57.1264 6.93939 57.0317 6.38447 56.8423 5.90341C56.6529 5.42235 56.3726 5.04545 56.0014 4.77273C55.6302 4.5 55.1719 4.36364 54.6264 4.36364C54.0582 4.36364 53.5848 4.50758 53.206 4.79545C52.831 5.08333 52.5488 5.4697 52.3594 5.95455C52.1738 6.43939 52.081 6.97727 52.081 7.56818C52.081 8.17424 52.1757 8.71023 52.3651 9.17614C52.5582 9.63826 52.8423 10.0019 53.2173 10.267C53.5961 10.5284 54.0658 10.6591 54.6264 10.6591ZM67.081 5.22727L65.8764 5.56818C65.8007 5.36742 65.6889 5.17235 65.5412 4.98295C65.3973 4.78977 65.2003 4.63068 64.9503 4.50568C64.7003 4.38068 64.3802 4.31818 63.9901 4.31818C63.456 4.31818 63.0109 4.44129 62.6548 4.6875C62.3026 4.92992 62.1264 5.23864 62.1264 5.61364C62.1264 5.94697 62.2476 6.21023 62.4901 6.40341C62.7325 6.59659 63.1113 6.75758 63.6264 6.88636L64.9219 7.20455C65.7022 7.39394 66.2836 7.68371 66.6662 8.07386C67.0488 8.46023 67.2401 8.95833 67.2401 9.56818C67.2401 10.0682 67.0961 10.5152 66.8082 10.9091C66.5241 11.303 66.1264 11.6136 65.6151 11.8409C65.1037 12.0682 64.509 12.1818 63.831 12.1818C62.9408 12.1818 62.2041 11.9886 61.6207 11.6023C61.0374 11.2159 60.6681 10.6515 60.5128 9.90909L61.7855 9.59091C61.9067 10.0606 62.1359 10.4129 62.473 10.6477C62.8139 10.8826 63.259 11 63.8082 11C64.4332 11 64.9295 10.8674 65.2969 10.6023C65.6681 10.3333 65.8537 10.0114 65.8537 9.63636C65.8537 9.33333 65.7476 9.07955 65.5355 8.875C65.3234 8.66667 64.9976 8.51136 64.5582 8.40909L63.1037 8.06818C62.3045 7.87879 61.7173 7.58523 61.3423 7.1875C60.9711 6.78598 60.7855 6.28409 60.7855 5.68182C60.7855 5.18939 60.9238 4.75379 61.2003 4.375C61.4806 3.99621 61.8613 3.69886 62.3423 3.48295C62.8272 3.26705 63.3764 3.15909 63.9901 3.15909C64.8537 3.15909 65.5317 3.34848 66.0241 3.72727C66.5204 4.10606 66.8726 4.60606 67.081 5.22727Z"/>
</mask>
<path d="M0.409091 0.363636H2.09091L6.04545 10.0227H6.18182L10.1364 0.363636H11.8182V12H10.5V3.15909H10.3864L6.75 12H5.47727L1.84091 3.15909H1.72727V12H0.409091V0.363636ZM15.3253 15.2727C15.098 15.2727 14.8954 15.2538 14.7173 15.2159C14.5393 15.1818 14.4162 15.1477 14.348 15.1136L14.6889 13.9318C15.0147 14.0152 15.3026 14.0455 15.5526 14.0227C15.8026 14 16.0241 13.8883 16.2173 13.6875C16.4143 13.4905 16.5942 13.1705 16.7571 12.7273L17.0071 12.0455L13.7798 3.27273H15.2344L17.6435 10.2273H17.7344L20.1435 3.27273H21.598L17.8935 13.2727C17.7268 13.7235 17.5204 14.0966 17.2741 14.392C17.0279 14.6913 16.742 14.9129 16.4162 15.0568C16.0942 15.2008 15.7306 15.2727 15.3253 15.2727ZM28.0497 12V0.363636H29.3906V4.65909H29.5043C29.6027 4.50758 29.7391 4.31439 29.9134 4.07955C30.0914 3.84091 30.3452 3.62879 30.6747 3.44318C31.008 3.25379 31.4588 3.15909 32.027 3.15909C32.7618 3.15909 33.4096 3.3428 33.9702 3.71023C34.5308 4.07765 34.9683 4.59848 35.2827 5.27273C35.5971 5.94697 35.7543 6.74242 35.7543 7.65909C35.7543 8.58333 35.5971 9.38447 35.2827 10.0625C34.9683 10.7367 34.5327 11.2595 33.9759 11.6307C33.419 11.9981 32.777 12.1818 32.0497 12.1818C31.4891 12.1818 31.0402 12.089 30.7031 11.9034C30.366 11.714 30.1065 11.5 29.9247 11.2614C29.7429 11.0189 29.6027 10.8182 29.5043 10.6591H29.3452V12H28.0497ZM29.3679 7.63636C29.3679 8.29545 29.4645 8.87689 29.6577 9.38068C29.8509 9.88068 30.133 10.2727 30.5043 10.5568C30.8755 10.8371 31.33 10.9773 31.8679 10.9773C32.4285 10.9773 32.8963 10.8295 33.2713 10.5341C33.6501 10.2348 33.9342 9.83333 34.1236 9.32955C34.3168 8.82197 34.4134 8.25758 34.4134 7.63636C34.4134 7.02273 34.3187 6.4697 34.1293 5.97727C33.9437 5.48106 33.6615 5.08902 33.2827 4.80114C32.9077 4.50947 32.4361 4.36364 31.8679 4.36364C31.3224 4.36364 30.8641 4.50189 30.4929 4.77841C30.1217 5.05114 29.8414 5.43371 29.652 5.92614C29.4626 6.41477 29.3679 6.98485 29.3679 7.63636ZM39.1463 0.363636V12H37.8054V0.363636H39.1463ZM45.1477 12.1818C44.3598 12.1818 43.6686 11.9943 43.0739 11.6193C42.483 11.2443 42.0208 10.7197 41.6875 10.0455C41.358 9.37121 41.1932 8.58333 41.1932 7.68182C41.1932 6.77273 41.358 5.97917 41.6875 5.30114C42.0208 4.62311 42.483 4.09659 43.0739 3.72159C43.6686 3.34659 44.3598 3.15909 45.1477 3.15909C45.9356 3.15909 46.625 3.34659 47.2159 3.72159C47.8106 4.09659 48.2727 4.62311 48.6023 5.30114C48.9356 5.97917 49.1023 6.77273 49.1023 7.68182C49.1023 8.58333 48.9356 9.37121 48.6023 10.0455C48.2727 10.7197 47.8106 11.2443 47.2159 11.6193C46.625 11.9943 45.9356 12.1818 45.1477 12.1818ZM45.1477 10.9773C45.7462 10.9773 46.2386 10.8239 46.625 10.517C47.0114 10.2102 47.2973 9.80682 47.483 9.30682C47.6686 8.80682 47.7614 8.26515 47.7614 7.68182C47.7614 7.09848 47.6686 6.55492 47.483 6.05114C47.2973 5.54735 47.0114 5.14015 46.625 4.82955C46.2386 4.51894 45.7462 4.36364 45.1477 4.36364C44.5492 4.36364 44.0568 4.51894 43.6705 4.82955C43.2841 5.14015 42.9981 5.54735 42.8125 6.05114C42.6269 6.55492 42.5341 7.09848 42.5341 7.68182C42.5341 8.26515 42.6269 8.80682 42.8125 9.30682C42.9981 9.80682 43.2841 10.2102 43.6705 10.517C44.0568 10.8239 44.5492 10.9773 45.1477 10.9773ZM54.6719 15.4545C54.0241 15.4545 53.4673 15.3712 53.0014 15.2045C52.5355 15.0417 52.1473 14.8258 51.8366 14.5568C51.5298 14.2917 51.2855 14.0076 51.1037 13.7045L52.1719 12.9545C52.2931 13.1136 52.4465 13.2955 52.6321 13.5C52.8177 13.7083 53.0715 13.8883 53.3935 14.0398C53.7192 14.1951 54.1454 14.2727 54.6719 14.2727C55.3764 14.2727 55.9579 14.1023 56.4162 13.7614C56.8745 13.4205 57.1037 12.8864 57.1037 12.1591V10.3864H56.9901C56.8916 10.5455 56.7514 10.7424 56.5696 10.9773C56.3916 11.2083 56.134 11.4148 55.7969 11.5966C55.4635 11.7746 55.0128 11.8636 54.4446 11.8636C53.7401 11.8636 53.1075 11.697 52.5469 11.3636C51.9901 11.0303 51.5488 10.5455 51.223 9.90909C50.901 9.27273 50.7401 8.5 50.7401 7.59091C50.7401 6.69697 50.8973 5.91856 51.2116 5.25568C51.526 4.58901 51.9635 4.07386 52.5241 3.71023C53.0848 3.3428 53.7325 3.15909 54.4673 3.15909C55.0355 3.15909 55.4863 3.25379 55.8196 3.44318C56.1567 3.62879 56.4143 3.84091 56.5923 4.07955C56.7741 4.31439 56.9143 4.50758 57.0128 4.65909H57.1491V3.27273H58.4446V12.25C58.4446 13 58.2741 13.6098 57.9332 14.0795C57.5961 14.553 57.1416 14.8996 56.5696 15.1193C56.0014 15.3428 55.3688 15.4545 54.6719 15.4545ZM54.6264 10.6591C55.1643 10.6591 55.6188 10.536 55.9901 10.2898C56.3613 10.0436 56.6435 9.68939 56.8366 9.22727C57.0298 8.76515 57.1264 8.21212 57.1264 7.56818C57.1264 6.93939 57.0317 6.38447 56.8423 5.90341C56.6529 5.42235 56.3726 5.04545 56.0014 4.77273C55.6302 4.5 55.1719 4.36364 54.6264 4.36364C54.0582 4.36364 53.5848 4.50758 53.206 4.79545C52.831 5.08333 52.5488 5.4697 52.3594 5.95455C52.1738 6.43939 52.081 6.97727 52.081 7.56818C52.081 8.17424 52.1757 8.71023 52.3651 9.17614C52.5582 9.63826 52.8423 10.0019 53.2173 10.267C53.5961 10.5284 54.0658 10.6591 54.6264 10.6591ZM67.081 5.22727L65.8764 5.56818C65.8007 5.36742 65.6889 5.17235 65.5412 4.98295C65.3973 4.78977 65.2003 4.63068 64.9503 4.50568C64.7003 4.38068 64.3802 4.31818 63.9901 4.31818C63.456 4.31818 63.0109 4.44129 62.6548 4.6875C62.3026 4.92992 62.1264 5.23864 62.1264 5.61364C62.1264 5.94697 62.2476 6.21023 62.4901 6.40341C62.7325 6.59659 63.1113 6.75758 63.6264 6.88636L64.9219 7.20455C65.7022 7.39394 66.2836 7.68371 66.6662 8.07386C67.0488 8.46023 67.2401 8.95833 67.2401 9.56818C67.2401 10.0682 67.0961 10.5152 66.8082 10.9091C66.5241 11.303 66.1264 11.6136 65.6151 11.8409C65.1037 12.0682 64.509 12.1818 63.831 12.1818C62.9408 12.1818 62.2041 11.9886 61.6207 11.6023C61.0374 11.2159 60.6681 10.6515 60.5128 9.90909L61.7855 9.59091C61.9067 10.0606 62.1359 10.4129 62.473 10.6477C62.8139 10.8826 63.259 11 63.8082 11C64.4332 11 64.9295 10.8674 65.2969 10.6023C65.6681 10.3333 65.8537 10.0114 65.8537 9.63636C65.8537 9.33333 65.7476 9.07955 65.5355 8.875C65.3234 8.66667 64.9976 8.51136 64.5582 8.40909L63.1037 8.06818C62.3045 7.87879 61.7173 7.58523 61.3423 7.1875C60.9711 6.78598 60.7855 6.28409 60.7855 5.68182C60.7855 5.18939 60.9238 4.75379 61.2003 4.375C61.4806 3.99621 61.8613 3.69886 62.3423 3.48295C62.8272 3.26705 63.3764 3.15909 63.9901 3.15909C64.8537 3.15909 65.5317 3.34848 66.0241 3.72727C66.5204 4.10606 66.8726 4.60606 67.081 5.22727Z" fill="#FFD050"/>
<path d="M0.409091 0.363636V-0.636364H-0.590909V0.363636H0.409091ZM2.09091 0.363636L3.01635 -0.0152512L2.76206 -0.636364H2.09091V0.363636ZM6.04545 10.0227L5.12001 10.4016L5.3743 11.0227H6.04545V10.0227ZM6.18182 10.0227V11.0227H6.85297L7.10726 10.4016L6.18182 10.0227ZM10.1364 0.363636V-0.636364H9.46521L9.21092 -0.0152512L10.1364 0.363636ZM11.8182 0.363636H12.8182V-0.636364H11.8182V0.363636ZM11.8182 12V13H12.8182V12H11.8182ZM10.5 12H9.5V13H10.5V12ZM10.5 3.15909H11.5V2.15909H10.5V3.15909ZM10.3864 3.15909V2.15909H9.71639L9.46154 2.7787L10.3864 3.15909ZM6.75 12V13H7.41997L7.67483 12.3804L6.75 12ZM5.47727 12L4.55245 12.3804L4.8073 13H5.47727V12ZM1.84091 3.15909L2.76573 2.7787L2.51088 2.15909H1.84091V3.15909ZM1.72727 3.15909V2.15909H0.727273V3.15909H1.72727ZM1.72727 12V13H2.72727V12H1.72727ZM0.409091 12H-0.590909V13H0.409091V12ZM0.409091 1.36364H2.09091V-0.636364H0.409091V1.36364ZM1.16547 0.742523L5.12001 10.4016L6.9709 9.64384L3.01635 -0.0152512L1.16547 0.742523ZM6.04545 11.0227H6.18182V9.02273H6.04545V11.0227ZM7.10726 10.4016L11.0618 0.742523L9.21092 -0.0152512L5.25638 9.64384L7.10726 10.4016ZM10.1364 1.36364H11.8182V-0.636364H10.1364V1.36364ZM10.8182 0.363636V12H12.8182V0.363636H10.8182ZM11.8182 11H10.5V13H11.8182V11ZM11.5 12V3.15909H9.5V12H11.5ZM10.5 2.15909H10.3864V4.15909H10.5V2.15909ZM9.46154 2.7787L5.82517 11.6196L7.67483 12.3804L11.3112 3.53948L9.46154 2.7787ZM6.75 11H5.47727V13H6.75V11ZM6.4021 11.6196L2.76573 2.7787L0.916083 3.53948L4.55245 12.3804L6.4021 11.6196ZM1.84091 2.15909H1.72727V4.15909H1.84091V2.15909ZM0.727273 3.15909V12H2.72727V3.15909H0.727273ZM1.72727 11H0.409091V13H1.72727V11ZM1.40909 12V0.363636H-0.590909V12H1.40909ZM14.7173 15.2159L14.9254 14.2378L14.9154 14.2357L14.9054 14.2338L14.7173 15.2159ZM14.348 15.1136L13.3872 14.8365L13.1566 15.636L13.9008 16.0081L14.348 15.1136ZM14.6889 13.9318L14.9368 12.963L13.997 12.7226L13.7281 13.6547L14.6889 13.9318ZM15.5526 14.0227L15.462 13.0268L15.5526 14.0227ZM16.2173 13.6875L15.5102 12.9804L15.5034 12.9872L15.4968 12.9941L16.2173 13.6875ZM16.7571 12.7273L17.6957 13.0722L17.696 13.0715L16.7571 12.7273ZM17.0071 12.0455L17.946 12.3897L18.0724 12.0449L17.9456 11.7002L17.0071 12.0455ZM13.7798 3.27273V2.27273H12.3464L12.8413 3.61798L13.7798 3.27273ZM15.2344 3.27273L16.1793 2.9454L15.9463 2.27273H15.2344V3.27273ZM17.6435 10.2273L16.6986 10.5546L16.9316 11.2273H17.6435V10.2273ZM17.7344 10.2273V11.2273H18.4463L18.6793 10.5546L17.7344 10.2273ZM20.1435 3.27273V2.27273H19.4316L19.1986 2.9454L20.1435 3.27273ZM21.598 3.27273L22.5357 3.62011L23.0349 2.27273H21.598V3.27273ZM17.8935 13.2727L16.9557 12.9253L16.9555 12.9259L17.8935 13.2727ZM17.2741 14.392L16.5059 13.7518L16.5019 13.7567L17.2741 14.392ZM16.4162 15.0568L16.012 14.1421L16.0081 14.1439L16.4162 15.0568ZM15.3253 14.2727C15.1515 14.2727 15.0206 14.2581 14.9254 14.2378L14.5092 16.194C14.7701 16.2495 15.0445 16.2727 15.3253 16.2727V14.2727ZM14.9054 14.2338C14.8329 14.2199 14.7857 14.2086 14.7584 14.201C14.7452 14.1974 14.7415 14.1959 14.7452 14.1973C14.7477 14.1982 14.7665 14.2049 14.7952 14.2192L13.9008 16.0081C14.1048 16.1101 14.3507 16.1639 14.5293 16.1981L14.9054 14.2338ZM15.3088 15.3908L15.6497 14.209L13.7281 13.6547L13.3872 14.8365L15.3088 15.3908ZM14.4411 14.9006C14.8421 15.0032 15.2484 15.0545 15.6431 15.0186L15.462 13.0268C15.3568 13.0364 15.1872 13.0271 14.9368 12.963L14.4411 14.9006ZM15.6431 15.0186C16.1595 14.9717 16.5976 14.7345 16.9379 14.3809L15.4968 12.9941C15.4826 13.0089 15.4719 13.0177 15.4654 13.0227C15.4621 13.0252 15.4597 13.0268 15.4582 13.0277C15.4574 13.0282 15.4569 13.0285 15.4565 13.0287C15.4562 13.0289 15.456 13.029 15.456 13.029C15.456 13.029 15.4561 13.0289 15.4564 13.0288C15.4566 13.0287 15.457 13.0285 15.4574 13.0284C15.4584 13.028 15.4594 13.0276 15.4605 13.0273C15.463 13.0266 15.4638 13.0267 15.462 13.0268L15.6431 15.0186ZM16.9244 14.3946C17.2716 14.0475 17.513 13.5695 17.6957 13.0722L15.8185 12.3823C15.6755 12.7714 15.557 12.9336 15.5102 12.9804L16.9244 14.3946ZM17.696 13.0715L17.946 12.3897L16.0682 11.7012L15.8182 12.383L17.696 13.0715ZM17.9456 11.7002L14.7183 2.92747L12.8413 3.61798L16.0686 12.3907L17.9456 11.7002ZM13.7798 4.27273H15.2344V2.27273H13.7798V4.27273ZM14.2895 3.60005L16.6986 10.5546L18.5884 9.89995L16.1793 2.9454L14.2895 3.60005ZM17.6435 11.2273H17.7344V9.22727H17.6435V11.2273ZM18.6793 10.5546L21.0884 3.60005L19.1986 2.9454L16.7895 9.89995L18.6793 10.5546ZM20.1435 4.27273H21.598V2.27273H20.1435V4.27273ZM20.6603 2.92534L16.9557 12.9253L18.8312 13.6201L22.5357 3.62011L20.6603 2.92534ZM16.9555 12.9259C16.8189 13.2955 16.6637 13.5626 16.5059 13.7519L18.0424 15.0322C18.377 14.6306 18.6347 14.1515 18.8314 13.6195L16.9555 12.9259ZM16.5019 13.7567C16.346 13.9462 16.1827 14.0667 16.012 14.1421L16.8204 15.9715C17.3012 15.759 17.7099 15.4364 18.0464 15.0274L16.5019 13.7567ZM16.0081 14.1439C15.8323 14.2225 15.6108 14.2727 15.3253 14.2727V16.2727C15.8503 16.2727 16.3562 16.179 16.8243 15.9697L16.0081 14.1439ZM28.0497 12H27.0497V13H28.0497V12ZM28.0497 0.363636V-0.636364H27.0497V0.363636H28.0497ZM29.3906 0.363636H30.3906V-0.636364H29.3906V0.363636ZM29.3906 4.65909H28.3906V5.65909H29.3906V4.65909ZM29.5043 4.65909V5.65909H30.0469L30.3427 5.20408L29.5043 4.65909ZM29.9134 4.07955L29.1118 3.48158L29.1103 3.4837L29.9134 4.07955ZM30.6747 3.44318L31.1655 4.3145L31.1687 4.31264L30.6747 3.44318ZM33.9702 3.71023L34.5183 2.87386V2.87385L33.9702 3.71023ZM35.2827 10.0625L36.189 10.4851L36.1899 10.4832L35.2827 10.0625ZM33.9759 11.6307L34.5266 12.4654L34.5306 12.4627L33.9759 11.6307ZM30.7031 11.9034L30.2133 12.7753L30.2208 12.7794L30.7031 11.9034ZM29.9247 11.2614L29.1247 11.8614L29.1293 11.8674L29.9247 11.2614ZM29.5043 10.6591L30.3545 10.1327L30.0613 9.65909H29.5043V10.6591ZM29.3452 10.6591V9.65909H28.3452V10.6591H29.3452ZM29.3452 12V13H30.3452V12H29.3452ZM29.6577 9.38068L28.724 9.73872L28.7249 9.74108L29.6577 9.38068ZM30.5043 10.5568L29.8965 11.351L29.9017 11.3549L30.5043 10.5568ZM33.2713 10.5341L33.8902 11.3196L33.8912 11.3188L33.2713 10.5341ZM34.1236 9.32955L33.189 8.97384L33.1875 8.97765L34.1236 9.32955ZM34.1293 5.97727L33.1926 6.32763L33.1959 6.33625L34.1293 5.97727ZM33.2827 4.80114L32.6687 5.59054L32.6776 5.5973L33.2827 4.80114ZM30.4929 4.77841L31.085 5.58431L31.0903 5.58037L30.4929 4.77841ZM29.652 5.92614L30.5844 6.28754L30.5853 6.28512L29.652 5.92614ZM29.0497 12V0.363636H27.0497V12H29.0497ZM28.0497 1.36364H29.3906V-0.636364H28.0497V1.36364ZM28.3906 0.363636V4.65909H30.3906V0.363636H28.3906ZM29.3906 5.65909H29.5043V3.65909H29.3906V5.65909ZM30.3427 5.20408C30.4252 5.07709 30.548 4.90242 30.7164 4.67539L29.1103 3.4837C28.9302 3.72637 28.7802 3.93806 28.6658 4.1141L30.3427 5.20408ZM30.7149 4.67751C30.7902 4.57653 30.9258 4.44949 31.1655 4.31449L30.184 2.57187C29.7646 2.80808 29.3926 3.10529 29.1118 3.48158L30.7149 4.67751ZM31.1687 4.31264C31.296 4.24033 31.5545 4.15909 32.027 4.15909V2.15909C31.3632 2.15909 30.7201 2.26724 30.1807 2.57373L31.1687 4.31264ZM32.027 4.15909C32.5866 4.15909 33.0399 4.29615 33.422 4.5466L34.5183 2.87385C33.7792 2.38945 32.9371 2.15909 32.027 2.15909V4.15909ZM33.422 4.5466C33.8104 4.80112 34.1316 5.17053 34.3764 5.69533L36.189 4.85012C35.8049 4.02643 35.2512 3.35418 34.5183 2.87386L33.422 4.5466ZM34.3764 5.69533C34.6164 6.21019 34.7543 6.85532 34.7543 7.65909H36.7543C36.7543 6.62953 36.5777 5.68375 36.189 4.85012L34.3764 5.69533ZM34.7543 7.65909C34.7543 8.47158 34.616 9.12299 34.3755 9.64184L36.1899 10.4832C36.5781 9.64595 36.7543 8.69509 36.7543 7.65909H34.7543ZM34.3764 9.63989C34.1305 10.1671 33.8088 10.5402 33.4212 10.7986L34.5306 12.4627C35.2565 11.9788 35.806 11.3064 36.189 10.4851L34.3764 9.63989ZM33.4251 10.796C33.0464 11.0459 32.5996 11.1818 32.0497 11.1818V13.1818C32.9544 13.1818 33.7916 12.9503 34.5266 12.4653L33.4251 10.796ZM32.0497 11.1818C31.5859 11.1818 31.3226 11.1029 31.1854 11.0274L30.2208 12.7794C30.7579 13.0751 31.3923 13.1818 32.0497 13.1818V11.1818ZM31.1929 11.0316C30.9418 10.8905 30.7991 10.759 30.7201 10.6553L29.1293 11.8674C29.414 12.241 29.7902 12.5375 30.2133 12.7752L31.1929 11.0316ZM30.7247 10.6614C30.5513 10.4301 30.4308 10.256 30.3545 10.1327L28.654 11.1854C28.7747 11.3804 28.9345 11.6078 29.1247 11.8614L30.7247 10.6614ZM29.5043 9.65909H29.3452V11.6591H29.5043V9.65909ZM28.3452 10.6591V12H30.3452V10.6591H28.3452ZM29.3452 11H28.0497V13H29.3452V11ZM28.3679 7.63636C28.3679 8.39157 28.4784 9.09844 28.724 9.73872L30.5914 9.02264C30.4505 8.65535 30.3679 8.19934 30.3679 7.63636H28.3679ZM28.7249 9.74108C28.9745 10.3871 29.3587 10.9393 29.8965 11.3509L31.112 9.76269C30.9074 9.60614 30.7272 9.37424 30.5905 9.02028L28.7249 9.74108ZM29.9017 11.3549C30.4727 11.7861 31.1479 11.9773 31.8679 11.9773V9.97727C31.5121 9.97727 31.2782 9.88818 31.1069 9.75878L29.9017 11.3549ZM31.8679 11.9773C32.6123 11.9773 33.3093 11.7773 33.8902 11.3196L32.6524 9.7486C32.4833 9.88182 32.2447 9.97727 31.8679 9.97727V11.9773ZM33.8912 11.3188C34.4288 10.8941 34.8137 10.3355 35.0596 9.68144L33.1875 8.97765C33.0546 9.33121 32.8714 9.57559 32.6514 9.74941L33.8912 11.3188ZM35.0582 9.68525C35.3003 9.04896 35.4134 8.36185 35.4134 7.63636H33.4134C33.4134 8.1533 33.3332 8.59498 33.189 8.97384L35.0582 9.68525ZM35.4134 7.63636C35.4134 6.91969 35.3026 6.24232 35.0626 5.61829L33.1959 6.33625C33.3347 6.69707 33.4134 7.12576 33.4134 7.63636H35.4134ZM35.0659 5.62693C34.8218 4.97452 34.4337 4.41986 33.8878 4.00497L32.6776 5.5973C32.8893 5.75817 33.0655 5.98761 33.1926 6.32761L35.0659 5.62693ZM33.8966 4.01178C33.3135 3.55828 32.6134 3.36364 31.8679 3.36364V5.36364C32.2588 5.36364 32.5018 5.46065 32.6687 5.59049L33.8966 4.01178ZM31.8679 3.36364C31.1469 3.36364 30.4687 3.54951 29.8955 3.97645L31.0903 5.58037C31.2595 5.45428 31.498 5.36364 31.8679 5.36364V3.36364ZM29.9008 3.97253C29.354 4.37429 28.9665 4.9228 28.7186 5.56716L30.5853 6.28512C30.7163 5.94462 30.8894 5.72798 31.085 5.58429L29.9008 3.97253ZM28.7196 5.56474C28.4761 6.19288 28.3679 6.89023 28.3679 7.63636H30.3679C30.3679 7.07947 30.4491 6.63667 30.5844 6.28754L28.7196 5.56474ZM39.1463 0.363636H40.1463V-0.636364H39.1463V0.363636ZM39.1463 12V13H40.1463V12H39.1463ZM37.8054 12H36.8054V13H37.8054V12ZM37.8054 0.363636V-0.636364H36.8054V0.363636H37.8054ZM38.1463 0.363636V12H40.1463V0.363636H38.1463ZM39.1463 11H37.8054V13H39.1463V11ZM38.8054 12V0.363636H36.8054V12H38.8054ZM37.8054 1.36364H39.1463V-0.636364H37.8054V1.36364ZM43.0739 11.6193L42.538 12.4637L42.5405 12.4652L43.0739 11.6193ZM41.6875 10.0455L40.7891 10.4846L40.7911 10.4886L41.6875 10.0455ZM41.6875 5.30114L40.7901 4.85994L40.7881 4.864L41.6875 5.30114ZM43.0739 3.72159L42.5405 2.87571L42.538 2.87726L43.0739 3.72159ZM47.2159 3.72159L46.6801 4.56592L46.6825 4.56746L47.2159 3.72159ZM48.6023 5.30114L47.7029 5.73828L47.7049 5.74232L48.6023 5.30114ZM48.6023 10.0455L47.7058 9.60227L47.7038 9.60633L48.6023 10.0455ZM47.2159 11.6193L46.6825 10.7734L46.6801 10.775L47.2159 11.6193ZM46.625 10.517L46.0031 9.73393L46.625 10.517ZM47.483 9.30682L48.4204 9.65483L48.4204 9.65483L47.483 9.30682ZM47.483 6.05114L48.4213 5.70543V5.70543L47.483 6.05114ZM46.625 4.82955L47.2516 4.05017V4.05017L46.625 4.82955ZM43.6705 4.82955L43.0439 4.05017L43.0439 4.05017L43.6705 4.82955ZM42.8125 6.05114L41.8742 5.70543V5.70543L42.8125 6.05114ZM42.8125 9.30682L41.875 9.65483V9.65483L42.8125 9.30682ZM43.6705 10.517L44.2923 9.73393L43.6705 10.517ZM45.1477 11.1818C44.5252 11.1818 44.0235 11.0359 43.6073 10.7734L42.5405 12.4652C43.3136 12.9527 44.1945 13.1818 45.1477 13.1818V11.1818ZM43.6097 10.775C43.185 10.5055 42.8424 10.125 42.5839 9.60227L40.7911 10.4886C41.1993 11.3144 41.7809 11.9831 42.538 12.4636L43.6097 10.775ZM42.5859 9.60633C42.3353 9.09364 42.1932 8.4614 42.1932 7.68182H40.1932C40.1932 8.70527 40.3806 9.64878 40.7891 10.4846L42.5859 9.60633ZM42.1932 7.68182C42.1932 6.89342 42.3358 6.25489 42.5869 5.73827L40.7881 4.864C40.3801 5.70344 40.1932 6.65203 40.1932 7.68182H42.1932ZM42.5849 5.74232C42.8438 5.21574 43.1864 4.83452 43.6097 4.56592L42.538 2.87726C41.7795 3.35866 41.1979 4.03047 40.7901 4.85995L42.5849 5.74232ZM43.6073 4.56746C44.0235 4.30498 44.5252 4.15909 45.1477 4.15909V2.15909C44.1945 2.15909 43.3136 2.3882 42.5405 2.87572L43.6073 4.56746ZM45.1477 4.15909C45.7704 4.15909 46.2689 4.30501 46.6801 4.56592L47.7517 2.87726C46.9811 2.38818 46.1008 2.15909 45.1477 2.15909V4.15909ZM46.6825 4.56746C47.108 4.83578 47.4487 5.21532 47.7029 5.73827L49.5017 4.864C49.0967 4.03089 48.5132 3.3574 47.7493 2.87572L46.6825 4.56746ZM47.7049 5.74232C47.9583 6.25795 48.1023 6.89499 48.1023 7.68182H50.1023C50.1023 6.65046 49.9129 5.70039 49.4997 4.85995L47.7049 5.74232ZM48.1023 7.68182C48.1023 8.45981 47.9588 9.09057 47.7058 9.60227L49.4987 10.4886C49.9124 9.65185 50.1023 8.70685 50.1023 7.68182H48.1023ZM47.7038 9.60633C47.4501 10.1255 47.1094 10.5042 46.6825 10.7734L47.7493 12.4652C48.5118 11.9844 49.0953 11.3139 49.5007 10.4846L47.7038 9.60633ZM46.6801 10.775C46.2689 11.0359 45.7704 11.1818 45.1477 11.1818V13.1818C46.1008 13.1818 46.9811 12.9527 47.7517 12.4636L46.6801 10.775ZM45.1477 11.9773C45.9224 11.9773 46.6483 11.7755 47.2469 11.3002L46.0031 9.73393C45.8289 9.87226 45.57 9.97727 45.1477 9.97727V11.9773ZM47.2469 11.3002C47.7877 10.8707 48.1767 10.3116 48.4204 9.65483L46.5455 8.95881C46.418 9.30206 46.235 9.5498 46.0031 9.73393L47.2469 11.3002ZM48.4204 9.65483C48.6511 9.03347 48.7614 8.37281 48.7614 7.68182H46.7614C46.7614 8.15749 46.686 8.58016 46.5455 8.95881L48.4204 9.65483ZM48.7614 7.68182C48.7614 6.99074 48.6511 6.32912 48.4213 5.70543L46.5446 6.39684C46.686 6.78073 46.7614 7.20623 46.7614 7.68182H48.7614ZM48.4213 5.70543C48.1784 5.04612 47.7909 4.48377 47.2516 4.05017L45.9984 5.60892C46.2318 5.79653 46.4163 6.04858 46.5446 6.39684L48.4213 5.70543ZM47.2516 4.05017C46.6529 3.56888 45.9252 3.36364 45.1477 3.36364V5.36364C45.5672 5.36364 45.8244 5.469 45.9984 5.60892L47.2516 4.05017ZM45.1477 3.36364C44.3703 3.36364 43.6426 3.56888 43.0439 4.05017L44.297 5.60892C44.4711 5.469 44.7282 5.36364 45.1477 5.36364V3.36364ZM43.0439 4.05017C42.5045 4.48377 42.1171 5.04612 41.8742 5.70543L43.7508 6.39684C43.8792 6.04858 44.0636 5.79653 44.297 5.60892L43.0439 4.05017ZM41.8742 5.70543C41.6444 6.32912 41.5341 6.99074 41.5341 7.68182H43.5341C43.5341 7.20623 43.6094 6.78073 43.7508 6.39684L41.8742 5.70543ZM41.5341 7.68182C41.5341 8.37281 41.6444 9.03347 41.875 9.65483L43.75 8.95881C43.6094 8.58016 43.5341 8.15749 43.5341 7.68182H41.5341ZM41.875 9.65483C42.1188 10.3116 42.5077 10.8707 43.0486 11.3002L44.2923 9.73393C44.0605 9.5498 43.8774 9.30206 43.75 8.95881L41.875 9.65483ZM43.0486 11.3002C43.6471 11.7755 44.3731 11.9773 45.1477 11.9773V9.97727C44.7254 9.97727 44.4665 9.87226 44.2923 9.73393L43.0486 11.3002ZM53.0014 15.2045L53.3382 14.263L53.3314 14.2606L53.0014 15.2045ZM51.8366 14.5568L52.4912 13.8008L52.4905 13.8002L51.8366 14.5568ZM51.1037 13.7045L50.5291 12.8861L49.7673 13.421L50.2462 14.219L51.1037 13.7045ZM52.1719 12.9545L52.9673 12.3485L52.3844 11.5834L51.5972 12.1361L52.1719 12.9545ZM52.6321 13.5L53.3788 12.8348L53.3727 12.828L52.6321 13.5ZM53.3935 14.0398L53.8238 13.1371L53.8193 13.135L53.3935 14.0398ZM56.4162 13.7614L57.013 14.5637L56.4162 13.7614ZM57.1037 10.3864H58.1037V9.38636H57.1037V10.3864ZM56.9901 10.3864V9.38636H56.433L56.1398 9.86001L56.9901 10.3864ZM56.5696 10.9773L55.7789 10.3651L55.7775 10.3669L56.5696 10.9773ZM55.7969 11.5966L56.268 12.4787L56.2716 12.4767L55.7969 11.5966ZM52.5469 11.3636L52.0332 12.2216L52.0358 12.2232L52.5469 11.3636ZM51.223 9.90909L50.3307 10.3606L50.3329 10.3648L51.223 9.90909ZM51.2116 5.25568L52.1152 5.68421L52.1161 5.68222L51.2116 5.25568ZM52.5241 3.71023L53.0683 4.5492L53.0723 4.5466L52.5241 3.71023ZM55.8196 3.44318L55.3256 4.31272L55.3373 4.31919L55.8196 3.44318ZM56.5923 4.07955L55.7908 4.67751L55.7961 4.68466L55.8016 4.69172L56.5923 4.07955ZM57.0128 4.65909L56.1743 5.20408L56.4701 5.65909H57.0128V4.65909ZM57.1491 4.65909V5.65909H58.1491V4.65909H57.1491ZM57.1491 3.27273V2.27273H56.1491V3.27273H57.1491ZM58.4446 3.27273H59.4446V2.27273H58.4446V3.27273ZM57.9332 14.0795L57.1239 13.4921L57.1186 13.4995L57.9332 14.0795ZM56.5696 15.1193L56.211 14.1858L56.2036 14.1887L56.5696 15.1193ZM55.9901 10.2898L55.4373 9.45642L55.9901 10.2898ZM56.8366 9.22727L57.7593 9.61296V9.61296L56.8366 9.22727ZM56.8423 5.90341L57.7728 5.53708L56.8423 5.90341ZM56.0014 4.77273L55.4093 5.57861L56.0014 4.77273ZM53.206 4.79545L52.6009 3.99928L52.597 4.00224L53.206 4.79545ZM52.3594 5.95455L51.4279 5.59069L51.4255 5.59703L52.3594 5.95455ZM52.3651 9.17614L51.4386 9.55273L51.4424 9.56182L52.3651 9.17614ZM53.2173 10.267L52.64 11.0836L52.6494 11.0901L53.2173 10.267ZM54.6719 14.4545C54.1054 14.4545 53.6685 14.3811 53.3382 14.263L52.6646 16.1461C53.2662 16.3613 53.9429 16.4545 54.6719 16.4545V14.4545ZM53.3314 14.2606C52.9612 14.1311 52.6894 13.9724 52.4912 13.8008L51.1821 15.3128C51.6051 15.6791 52.1098 15.9522 52.6714 16.1485L53.3314 14.2606ZM52.4905 13.8002C52.2524 13.5944 52.081 13.3898 51.9612 13.1901L50.2462 14.219C50.49 14.6254 50.8073 14.9889 51.1828 15.3134L52.4905 13.8002ZM51.6783 14.523L52.7465 13.773L51.5972 12.1361L50.5291 12.8861L51.6783 14.523ZM51.3764 13.5606C51.5201 13.7491 51.6934 13.9536 51.8915 14.172L53.3727 12.828C53.1996 12.6373 53.0661 12.4781 52.9673 12.3485L51.3764 13.5606ZM51.8854 14.1652C52.1818 14.4978 52.556 14.7508 52.9677 14.9446L53.8193 13.135C53.587 13.0257 53.4536 12.9188 53.3788 12.8348L51.8854 14.1652ZM52.9631 14.9424C53.4705 15.1843 54.0595 15.2727 54.6719 15.2727V13.2727C54.2312 13.2727 53.968 13.2058 53.8238 13.1371L52.9631 14.9424ZM54.6719 15.2727C55.5403 15.2727 56.3452 15.0604 57.013 14.5637L55.8194 12.959C55.5705 13.1441 55.2125 13.2727 54.6719 13.2727V15.2727ZM57.013 14.5637C57.7929 13.9837 58.1037 13.1072 58.1037 12.1591H56.1037C56.1037 12.6656 55.9562 12.8572 55.8194 12.959L57.013 14.5637ZM58.1037 12.1591V10.3864H56.1037V12.1591H58.1037ZM57.1037 9.38636H56.9901V11.3864H57.1037V9.38636ZM56.1398 9.86001C56.067 9.97753 55.9502 10.1438 55.7789 10.3651L57.3603 11.5894C57.5527 11.341 57.7161 11.1134 57.8403 10.9127L56.1398 9.86001ZM55.7775 10.3669C55.7075 10.4578 55.5726 10.5814 55.3222 10.7164L56.2716 12.4767C56.6954 12.2482 57.0757 11.9589 57.3617 11.5876L55.7775 10.3669ZM55.3258 10.7145C55.1922 10.7858 54.9245 10.8636 54.4446 10.8636V12.8636C55.1011 12.8636 55.7349 12.7634 56.268 12.4787L55.3258 10.7145ZM54.4446 10.8636C53.905 10.8636 53.4516 10.7381 53.0579 10.5041L52.0358 12.2232C52.7634 12.6558 53.5751 12.8636 54.4446 12.8636V10.8636ZM53.0605 10.5056C52.6805 10.2781 52.3625 9.94057 52.1132 9.45342L50.3329 10.3648C50.735 11.1503 51.2996 11.7825 52.0332 12.2216L53.0605 10.5056ZM52.1153 9.45763C51.8809 8.99433 51.7401 8.38501 51.7401 7.59091H49.7401C49.7401 8.61499 49.9212 9.55113 50.3307 10.3605L52.1153 9.45763ZM51.7401 7.59091C51.7401 6.81341 51.8766 6.18714 52.1152 5.68421L50.3081 4.82715C49.9179 5.64998 49.7401 6.58053 49.7401 7.59091H51.7401ZM52.1161 5.68222C52.3596 5.16595 52.6797 4.80129 53.0683 4.54919L51.98 2.87127C51.2474 3.34644 50.6925 4.01208 50.3072 4.82914L52.1161 5.68222ZM53.0723 4.5466C53.4544 4.29615 53.9077 4.15909 54.4673 4.15909V2.15909C53.5572 2.15909 52.7151 2.38945 51.976 2.87385L53.0723 4.5466ZM54.4673 4.15909C54.9399 4.15909 55.1983 4.24033 55.3256 4.31264L56.3136 2.57373C55.7742 2.26724 55.1312 2.15909 54.4673 2.15909V4.15909ZM55.3373 4.31919C55.5845 4.4553 55.7192 4.58156 55.7908 4.67751L57.3939 3.48158C57.1094 3.10026 56.7289 2.80228 56.3019 2.56717L55.3373 4.31919ZM55.8016 4.69172C55.9758 4.91672 56.0972 5.08547 56.1743 5.20408L57.8512 4.1141C57.7314 3.92968 57.5725 3.71207 57.3831 3.46737L55.8016 4.69172ZM57.0128 5.65909H57.1491V3.65909H57.0128V5.65909ZM58.1491 4.65909V3.27273H56.1491V4.65909H58.1491ZM57.1491 4.27273H58.4446V2.27273H57.1491V4.27273ZM57.4446 3.27273V12.25H59.4446V3.27273H57.4446ZM57.4446 12.25C57.4446 12.8507 57.309 13.2372 57.1239 13.4921L58.7425 14.6669C59.2393 13.9825 59.4446 13.1493 59.4446 12.25H57.4446ZM57.1186 13.4995C56.9018 13.8041 56.61 14.0326 56.211 14.1858L56.9282 16.0528C57.6731 15.7667 58.2904 15.302 58.7479 14.6595L57.1186 13.4995ZM56.2036 14.1887C55.7673 14.3603 55.2611 14.4545 54.6719 14.4545V16.4545C55.4766 16.4545 56.2356 16.3253 56.9356 16.0499L56.2036 14.1887ZM54.6264 11.6591C55.3196 11.6591 55.9764 11.4988 56.5428 11.1231L55.4373 9.45642C55.2613 9.57317 55.009 9.65909 54.6264 9.65909V11.6591ZM56.5428 11.1231C57.0989 10.7543 57.4996 10.2341 57.7593 9.61296L55.914 8.84158C55.7873 9.14469 55.6236 9.33284 55.4373 9.45642L56.5428 11.1231ZM57.7593 9.61296C58.0159 8.99919 58.1264 8.30833 58.1264 7.56818H56.1264C56.1264 8.11591 56.0438 8.53111 55.914 8.84158L57.7593 9.61296ZM58.1264 7.56818C58.1264 6.84035 58.0169 6.15705 57.7728 5.53708L55.9118 6.26974C56.0466 6.61189 56.1264 7.03844 56.1264 7.56818H58.1264ZM57.7728 5.53708C57.523 4.90263 57.1348 4.36453 56.5935 3.96685L55.4093 5.57861C55.6105 5.72638 55.7828 5.94207 55.9118 6.26974L57.7728 5.53708ZM56.5935 3.96685C56.0207 3.54602 55.3445 3.36364 54.6264 3.36364V5.36364C54.9993 5.36364 55.2397 5.45398 55.4093 5.57861L56.5935 3.96685ZM54.6264 3.36364C53.8835 3.36364 53.1856 3.55492 52.6009 3.99929L53.8111 5.59162C53.9839 5.46023 54.233 5.36364 54.6264 5.36364V3.36364ZM52.597 4.00224C52.063 4.41218 51.6767 4.95369 51.4279 5.5907L53.2908 6.3184C53.4208 5.9857 53.5989 5.75449 53.8149 5.58867L52.597 4.00224ZM51.4255 5.59703C51.1906 6.21065 51.081 6.87179 51.081 7.56818H53.081C53.081 7.08276 53.157 6.66813 53.2933 6.31206L51.4255 5.59703ZM51.081 7.56818C51.081 8.2775 51.1918 8.9454 51.4387 9.55272L53.2914 8.79956C53.1595 8.47506 53.081 8.07098 53.081 7.56818H51.081ZM51.4424 9.56182C51.7012 10.1808 52.098 10.7003 52.64 11.0836L53.7947 9.45053C53.5867 9.30349 53.4153 9.09567 53.2877 8.79045L51.4424 9.56182ZM52.6494 11.0901C53.2286 11.4898 53.9078 11.6591 54.6264 11.6591V9.65909C54.2238 9.65909 53.9636 9.56702 53.7853 9.44397L52.6494 11.0901ZM67.081 5.22727L67.3533 6.18948L68.3626 5.90383L68.0291 4.90931L67.081 5.22727ZM65.8764 5.56818L64.9408 5.92124L65.2651 6.78049L66.1487 6.53039L65.8764 5.56818ZM65.5412 4.98295L64.7393 5.58044L64.7459 5.58928L64.7527 5.59799L65.5412 4.98295ZM64.9503 4.50568L65.3975 3.61125V3.61125L64.9503 4.50568ZM62.6548 4.6875L63.2217 5.51129L63.2236 5.51001L62.6548 4.6875ZM62.4901 6.40341L61.8669 7.18547L62.4901 6.40341ZM63.6264 6.88636L63.3839 7.85651L63.3879 7.8575L63.6264 6.88636ZM64.9219 7.20455L64.6833 8.17569L64.686 8.17633L64.9219 7.20455ZM66.6662 8.07386L65.9522 8.77401L65.9556 8.77748L66.6662 8.07386ZM66.8082 10.9091L66.0008 10.3191L65.9971 10.3242L66.8082 10.9091ZM61.6207 11.6023L62.1729 10.7686L61.6207 11.6023ZM60.5128 9.90909L60.2702 8.93895L59.337 9.17226L59.534 10.1138L60.5128 9.90909ZM61.7855 9.59091L62.7538 9.34103L62.5058 8.38006L61.543 8.62077L61.7855 9.59091ZM62.473 10.6477L61.9014 11.4683L61.9057 11.4712L62.473 10.6477ZM65.2969 10.6023L65.8821 11.4132L65.8836 11.4121L65.2969 10.6023ZM65.5355 8.875L64.8348 9.58848L64.8414 9.59484L65.5355 8.875ZM64.5582 8.40909L64.33 9.38271L64.3315 9.38305L64.5582 8.40909ZM63.1037 8.06818L62.8731 9.04124L62.8755 9.0418L63.1037 8.06818ZM61.3423 7.1875L60.608 7.86639L60.6147 7.87351L61.3423 7.1875ZM61.2003 4.375L60.3964 3.78014L60.3926 3.78539L61.2003 4.375ZM62.3423 3.48295L61.9355 2.56943L61.9329 2.57063L62.3423 3.48295ZM66.0241 3.72727L65.4144 4.5199L65.4174 4.52215L66.0241 3.72727ZM66.8086 4.26507L65.6041 4.60598L66.1487 6.53039L67.3533 6.18948L66.8086 4.26507ZM66.812 5.21513C66.6967 4.90964 66.5321 4.62738 66.3297 4.36792L64.7527 5.59799C64.8458 5.71732 64.9046 5.82521 64.9408 5.92124L66.812 5.21513ZM66.3431 4.38547C66.0918 4.0483 65.7649 3.79495 65.3975 3.61125L64.5031 5.40011C64.6357 5.46641 64.7027 5.53125 64.7393 5.58044L66.3431 4.38547ZM65.3975 3.61125C64.9648 3.39492 64.4777 3.31818 63.9901 3.31818V5.31818C64.2828 5.31818 64.4357 5.36644 64.5031 5.40011L65.3975 3.61125ZM63.9901 3.31818C63.3007 3.31818 62.6448 3.47863 62.0861 3.86499L63.2236 5.51001C63.377 5.40395 63.6112 5.31818 63.9901 5.31818V3.31818ZM62.0879 3.86372C61.5087 4.26234 61.1264 4.8593 61.1264 5.61364H63.1264C63.1264 5.59882 63.1281 5.59335 63.1278 5.59429C63.1275 5.59552 63.1268 5.5969 63.1271 5.59642C63.1276 5.59557 63.132 5.58783 63.1455 5.57381C63.1593 5.55942 63.1831 5.53789 63.2217 5.51128L62.0879 3.86372ZM61.1264 5.61364C61.1264 6.22507 61.3665 6.78671 61.8669 7.18547L63.1133 5.62135C63.1078 5.61699 63.1089 5.61701 63.1131 5.62227C63.1151 5.62476 63.1174 5.62792 63.1197 5.63169C63.122 5.63545 63.124 5.63925 63.1257 5.64285C63.1292 5.6505 63.1297 5.65419 63.1291 5.65139C63.1285 5.64821 63.1264 5.63635 63.1264 5.61364H61.1264ZM61.8669 7.18547C62.2741 7.50998 62.8152 7.71434 63.3839 7.85651L63.869 5.91622C63.4073 5.80081 63.1909 5.6832 63.1133 5.62135L61.8669 7.18547ZM63.3879 7.8575L64.6833 8.17568L65.1604 6.23341L63.8649 5.91523L63.3879 7.8575ZM64.686 8.17633C65.3648 8.34108 65.7482 8.56595 65.9522 8.774L67.3802 7.37372C66.8191 6.80147 66.0396 6.4468 65.1577 6.23276L64.686 8.17633ZM65.9556 8.77748C66.1296 8.95314 66.2401 9.18689 66.2401 9.56818H68.2401C68.2401 8.72978 67.968 7.96731 67.3768 7.37025L65.9556 8.77748ZM66.2401 9.56818C66.2401 9.86169 66.1603 10.1009 66.0008 10.3191L67.6156 11.4991C68.032 10.9294 68.2401 10.2747 68.2401 9.56818H66.2401ZM65.9971 10.3242C65.8315 10.5539 65.5835 10.7606 65.2089 10.9271L66.0212 12.7547C66.6693 12.4667 67.2169 12.0521 67.6193 11.494L65.9971 10.3242ZM65.2089 10.9271C64.8495 11.0868 64.3981 11.1818 63.831 11.1818V13.1818C64.6199 13.1818 65.3579 13.0495 66.0212 12.7547L65.2089 10.9271ZM63.831 11.1818C63.084 11.1818 62.5532 11.0204 62.1729 10.7686L61.0685 12.436C61.855 12.9569 62.7976 13.1818 63.831 13.1818V11.1818ZM62.1729 10.7686C61.8285 10.5405 61.598 10.213 61.4916 9.70434L59.534 10.1138C59.7382 11.09 60.2463 11.8914 61.0685 12.436L62.1729 10.7686ZM60.7553 10.8792L62.028 10.5611L61.543 8.62077L60.2702 8.93895L60.7553 10.8792ZM60.8172 9.84079C60.9868 10.498 61.3338 11.0728 61.9014 11.4683L63.0446 9.8272C62.938 9.75294 62.8266 9.62321 62.7538 9.34103L60.8172 9.84079ZM61.9057 11.4712C62.4601 11.8532 63.1216 12 63.8082 12V10C63.3964 10 63.1677 9.91197 63.0403 9.82422L61.9057 11.4712ZM63.8082 12C64.5655 12 65.2905 11.8401 65.8821 11.4132L64.7117 9.79137C64.5684 9.89476 64.301 10 63.8082 10V12ZM65.8836 11.4121C66.4495 11.0021 66.8537 10.4045 66.8537 9.63636H64.8537C64.8537 9.6419 64.8534 9.64542 64.8531 9.64727C64.8529 9.6491 64.8527 9.65001 64.8526 9.65034C64.8525 9.65066 64.8523 9.65125 64.8519 9.65236C64.8514 9.6535 64.8503 9.6559 64.8481 9.65966C64.8401 9.67366 64.8077 9.72182 64.7102 9.79247L65.8836 11.4121ZM66.8537 9.63636C66.8537 9.07047 66.6434 8.5541 66.2296 8.15516L64.8414 9.59484C64.8498 9.60297 64.853 9.60747 64.8533 9.60791C64.8535 9.60821 64.8525 9.60677 64.8515 9.60434C64.8505 9.60196 64.8508 9.60181 64.8515 9.60544C64.8522 9.60928 64.8537 9.61909 64.8537 9.63636H66.8537ZM66.2362 8.16155C65.8419 7.7743 65.3175 7.55909 64.7849 7.43513L64.3315 9.38305C64.6777 9.46363 64.8049 9.55904 64.8348 9.58845L66.2362 8.16155ZM64.7864 7.43547L63.3319 7.09457L62.8755 9.0418L64.33 9.38271L64.7864 7.43547ZM63.3343 7.09513C62.6357 6.92959 62.2593 6.70231 62.0699 6.50149L60.6147 7.87351C61.1754 8.46815 61.9732 8.82799 62.8731 9.04123L63.3343 7.09513ZM62.0766 6.50865C61.8941 6.31129 61.7855 6.06012 61.7855 5.68182H59.7855C59.7855 6.50806 60.0481 7.26068 60.6081 7.86635L62.0766 6.50865ZM61.7855 5.68182C61.7855 5.39005 61.8629 5.16331 62.008 4.96461L60.3926 3.78539C59.9846 4.34427 59.7855 4.98873 59.7855 5.68182H61.7855ZM62.0041 4.96984C62.1707 4.74478 62.4083 4.54947 62.7518 4.39528L61.9329 2.57063C61.3143 2.84826 60.7905 3.24765 60.3964 3.78016L62.0041 4.96984ZM62.7491 4.39647C63.0875 4.24581 63.4948 4.15909 63.9901 4.15909V2.15909C63.258 2.15909 62.5669 2.28828 61.9355 2.56944L62.7491 4.39647ZM63.9901 4.15909C64.7176 4.15909 65.1537 4.31929 65.4144 4.5199L66.6339 2.93465C65.9098 2.37768 64.9898 2.15909 63.9901 2.15909V4.15909ZM65.4174 4.52215C65.7466 4.77345 65.9848 5.1036 66.1329 5.54523L68.0291 4.90931C67.7605 4.10852 67.2941 3.43867 66.6309 2.9324L65.4174 4.52215Z" fill="black" mask="url(#path-1-outside-1_5979_803)"/>
</svg>
