<svg width="290" height="40" viewBox="0 0 290 40" fill="none" xmlns="http://www.w3.org/2000/svg">
<path d="M98.2383 25.6367V29H86.9453V25.6367H90.6914V16.0664C90.1445 16.5221 89.5521 16.8685 88.9141 17.1055C88.276 17.3424 87.6745 17.5247 87.1094 17.6523V13.9609C88.0208 13.6875 88.9049 13.2591 89.7617 12.6758C90.6367 12.0924 91.3659 11.4271 91.9492 10.6797H94.4648V25.6367H98.2383ZM113.848 10.2695C115.105 10.2695 116.199 10.5065 117.129 10.9805C118.077 11.4362 118.815 12.0833 119.344 12.9219C119.872 13.7422 120.137 14.7083 120.137 15.8203C120.137 16.7318 119.991 17.5703 119.699 18.3359C119.426 19.0833 119.025 19.8307 118.496 20.5781C117.967 21.3073 117.32 22.0911 116.555 22.9297C115.807 23.7682 114.951 24.7253 113.984 25.8008H120.273V29H108.324V27.4688C110.074 25.5729 111.542 23.9779 112.727 22.6836C113.93 21.3711 114.832 20.25 115.434 19.3203C116.053 18.3724 116.363 17.5339 116.363 16.8047C116.363 15.875 116.053 15.1549 115.434 14.6445C114.832 14.1159 114.076 13.8516 113.164 13.8516C112.326 13.8516 111.505 14.0703 110.703 14.5078C109.901 14.9453 109.245 15.4375 108.734 15.9844V12.1016C109.281 11.6276 110.01 11.2083 110.922 10.8438C111.833 10.4609 112.809 10.2695 113.848 10.2695ZM132.055 25.1172C132.656 25.1172 133.167 25.3359 133.586 25.7734C134.023 26.1927 134.242 26.7031 134.242 27.3047C134.242 27.9062 134.023 28.4258 133.586 28.8633C133.167 29.2826 132.656 29.4922 132.055 29.4922C131.453 29.4922 130.934 29.2826 130.496 28.8633C130.077 28.4258 129.867 27.9062 129.867 27.3047C129.867 26.7031 130.077 26.1927 130.496 25.7734C130.934 25.3359 131.453 25.1172 132.055 25.1172ZM138.602 25.1172C139.203 25.1172 139.714 25.3359 140.133 25.7734C140.57 26.1927 140.789 26.7031 140.789 27.3047C140.789 27.9062 140.57 28.4258 140.133 28.8633C139.714 29.2826 139.203 29.4922 138.602 29.4922C138 29.4922 137.48 29.2826 137.043 28.8633C136.624 28.4258 136.414 27.9062 136.414 27.3047C136.414 26.7031 136.624 26.1927 137.043 25.7734C137.48 25.3359 138 25.1172 138.602 25.1172ZM145.148 25.1172C145.75 25.1172 146.26 25.3359 146.68 25.7734C147.117 26.1927 147.336 26.7031 147.336 27.3047C147.336 27.9062 147.117 28.4258 146.68 28.8633C146.26 29.2826 145.75 29.4922 145.148 29.4922C144.547 29.4922 144.027 29.2826 143.59 28.8633C143.171 28.4258 142.961 27.9062 142.961 27.3047C142.961 26.7031 143.171 26.1927 143.59 25.7734C144.027 25.3359 144.547 25.1172 145.148 25.1172ZM168.934 25.6367V29H157.641V25.6367H161.387V16.0664C160.84 16.5221 160.247 16.8685 159.609 17.1055C158.971 17.3424 158.37 17.5247 157.805 17.6523V13.9609C158.716 13.6875 159.6 13.2591 160.457 12.6758C161.332 12.0924 162.061 11.4271 162.645 10.6797H165.16V25.6367H168.934ZM177.75 10.2695C179.318 10.2695 180.621 10.707 181.66 11.582C182.717 12.4388 183.501 13.5964 184.012 15.0547C184.54 16.4948 184.805 18.0898 184.805 19.8398C184.805 21.5898 184.54 23.194 184.012 24.6523C183.501 26.0924 182.717 27.25 181.66 28.125C180.621 28.9818 179.318 29.4102 177.75 29.4102C176.182 29.4102 174.87 28.9818 173.812 28.125C172.773 27.25 171.99 26.0924 171.461 24.6523C170.951 23.194 170.695 21.5898 170.695 19.8398C170.695 18.0898 170.951 16.4948 171.461 15.0547C171.99 13.5964 172.773 12.4388 173.812 11.582C174.87 10.707 176.182 10.2695 177.75 10.2695ZM177.75 13.5781C177.021 13.5781 176.41 13.8607 175.918 14.4258C175.444 14.9727 175.089 15.7201 174.852 16.668C174.615 17.5977 174.496 18.6549 174.496 19.8398C174.496 21.0247 174.615 22.0911 174.852 23.0391C175.089 23.9688 175.444 24.707 175.918 25.2539C176.41 25.8008 177.021 26.0742 177.75 26.0742C178.479 26.0742 179.081 25.8008 179.555 25.2539C180.047 24.707 180.411 23.9688 180.648 23.0391C180.904 22.0911 181.031 21.0247 181.031 19.8398C181.031 18.6549 180.904 17.5977 180.648 16.668C180.411 15.7201 180.047 14.9727 179.555 14.4258C179.081 13.8607 178.479 13.5781 177.75 13.5781Z" fill="#232536"/>
<path d="M224.906 10.6797V29.1367H223.539L212.684 17.9531V29H208.883V10.543H210.25L221.105 21.8906V10.6797H224.906ZM234.816 14.8359C236.165 14.8359 237.323 15.1276 238.289 15.7109C239.273 16.2943 240.021 17.1055 240.531 18.1445C241.06 19.1654 241.324 20.3503 241.324 21.6992V23.1758H231.316C231.499 24.1055 231.954 24.8529 232.684 25.418C233.413 25.9831 234.306 26.2656 235.363 26.2656C236.366 26.2656 237.277 26.0651 238.098 25.6641C238.918 25.263 239.574 24.8529 240.066 24.4336L240.039 27.6602C239.602 28.043 238.945 28.4349 238.07 28.8359C237.214 29.2188 236.266 29.4102 235.227 29.4102C233.859 29.4102 232.611 29.1003 231.48 28.4805C230.368 27.8607 229.475 27.013 228.801 25.9375C228.145 24.862 227.816 23.6315 227.816 22.2461C227.816 20.8971 228.117 19.6667 228.719 18.5547C229.32 17.4427 230.15 16.5495 231.207 15.875C232.264 15.1823 233.467 14.8359 234.816 14.8359ZM234.734 17.8711C233.878 17.8711 233.158 18.1354 232.574 18.6641C231.991 19.1927 231.59 19.9036 231.371 20.7969H237.988C237.915 19.8125 237.551 19.0833 236.895 18.6094C236.238 18.1172 235.518 17.8711 234.734 17.8711ZM256.758 15.1914L251.344 21.9453L256.949 29H252.602L249.156 24.1875L245.711 29H241.363L246.969 21.9453L241.555 15.1914H245.656L249.156 19.6211L252.656 15.1914H256.758ZM263.223 11.1719V15.1914H267.051V18.0898H263.223V24.0508C263.223 24.6706 263.359 25.1628 263.633 25.5273C263.924 25.8737 264.353 26.0469 264.918 26.0469C265.41 26.0469 265.829 25.9922 266.176 25.8828C266.54 25.7734 266.878 25.6185 267.188 25.418V28.1797C266.841 28.526 266.404 28.8177 265.875 29.0547C265.365 29.2917 264.717 29.4102 263.934 29.4102C262.694 29.4102 261.682 29.0182 260.898 28.2344C260.133 27.4323 259.75 26.3385 259.75 24.9531V18.0898H257.262V16.3125C258.137 16.0026 258.939 15.4193 259.668 14.5625C260.415 13.7057 261.008 12.5755 261.445 11.1719H263.223ZM276.18 12.7852V16.5586L283.727 20.7148L276.18 25.2266V29L288.074 21.4531V20.0586L276.18 12.7852Z" fill="#232536"/>
<path d="M11.9844 14.1016V17.3359L5.51562 20.8984L11.9844 24.7656V28L1.78906 21.5312V20.3359L11.9844 14.1016ZM29.0234 12.2969C29.7578 12.2969 30.4766 12.4219 31.1797 12.6719C31.8828 12.9219 32.5156 13.2891 33.0781 13.7734C33.6562 14.2578 34.1094 14.8438 34.4375 15.5312C34.7812 16.2031 34.9531 16.9766 34.9531 17.8516C34.9531 18.9141 34.6797 19.8594 34.1328 20.6875C33.6016 21.5 32.8906 22.1406 32 22.6094C31.1094 23.0781 30.1406 23.3125 29.0938 23.3125C28.3906 23.3125 27.7578 23.2422 27.1953 23.1016C26.6328 22.9609 26.1641 22.7969 25.7891 22.6094V28H22.5312V12.2969H29.0234ZM25.7891 15.3438V19.9844C26.1328 20.125 26.5469 20.25 27.0312 20.3594C27.5312 20.4531 28.0391 20.5 28.5547 20.5C29.4922 20.5 30.2344 20.2422 30.7812 19.7266C31.3438 19.1953 31.625 18.5703 31.625 17.8516C31.625 17.0234 31.3125 16.3984 30.6875 15.9766C30.0625 15.5547 29.3281 15.3438 28.4844 15.3438H25.7891ZM45.1719 19.4922C44.6719 19.2109 44.1484 19.0703 43.6016 19.0703C42.9141 19.0703 42.3438 19.2969 41.8906 19.75C41.4375 20.1875 41.0391 20.7344 40.6953 21.3906V28H37.7188V16.1641H40.6953V18.3906C41.1016 17.6875 41.5781 17.1016 42.125 16.6328C42.6875 16.1641 43.3203 15.9297 44.0234 15.9297C44.4453 15.9297 44.8281 16 45.1719 16.1406V19.4922ZM52.6484 15.8594C53.8047 15.8594 54.7969 16.1094 55.625 16.6094C56.4688 17.1094 57.1094 17.8047 57.5469 18.6953C58 19.5703 58.2266 20.5859 58.2266 21.7422V23.0078H49.6484C49.8047 23.8047 50.1953 24.4453 50.8203 24.9297C51.4453 25.4141 52.2109 25.6562 53.1172 25.6562C53.9766 25.6562 54.7578 25.4844 55.4609 25.1406C56.1641 24.7969 56.7266 24.4453 57.1484 24.0859L57.125 26.8516C56.75 27.1797 56.1875 27.5156 55.4375 27.8594C54.7031 28.1875 53.8906 28.3516 53 28.3516C51.8281 28.3516 50.7578 28.0859 49.7891 27.5547C48.8359 27.0234 48.0703 26.2969 47.4922 25.375C46.9297 24.4531 46.6484 23.3984 46.6484 22.2109C46.6484 21.0547 46.9062 20 47.4219 19.0469C47.9375 18.0938 48.6484 17.3281 49.5547 16.75C50.4609 16.1562 51.4922 15.8594 52.6484 15.8594ZM52.5781 18.4609C51.8438 18.4609 51.2266 18.6875 50.7266 19.1406C50.2266 19.5938 49.8828 20.2031 49.6953 20.9688H55.3672C55.3047 20.125 54.9922 19.5 54.4297 19.0938C53.8672 18.6719 53.25 18.4609 52.5781 18.4609ZM72.3828 16.1641L66.7812 28H64.8828L59.3516 16.1641H62.8203L65.7969 23.5L68.9141 16.1641H72.3828Z" fill="#6D6E76"/>
</svg>
